<svg xmlns="http://www.w3.org/2000/svg" xmlns:xlink="http://www.w3.org/1999/xlink" width="500" zoomAndPan="magnify" viewBox="0 0 375 374.999991" height="500" preserveAspectRatio="xMidYMid meet" version="1.0"><defs><g/><clipPath id="b4e91ebc8e"><path d="M 122.054688 88.140625 L 252.925781 88.140625 L 252.925781 226.890625 L 122.054688 226.890625 Z M 122.054688 88.140625 " clip-rule="nonzero"/></clipPath><clipPath id="950211d212"><path d="M 170.242188 111.597656 L 246.707031 111.597656 L 246.707031 201.597656 L 170.242188 201.597656 Z M 170.242188 111.597656 " clip-rule="nonzero"/></clipPath></defs><g clip-path="url(#b4e91ebc8e)"><path fill="#72757e" d="M 122.554688 171.027344 C 122.1875 168.058594 121.890625 163.054688 122.152344 157.394531 C 122.414062 151.734375 123.214844 145.429688 124.355469 139.859375 C 125.488281 134.273438 126.964844 129.414062 128.3125 126.050781 C 129.660156 122.675781 130.890625 120.785156 131.222656 120.441406 C 131.574219 120.113281 131.027344 121.347656 129.996094 124.390625 C 128.964844 127.417969 127.460938 132.257812 126.570312 137.167969 C 125.695312 142.082031 125.441406 147.070312 125.5 151.179688 C 125.554688 155.292969 125.925781 158.539062 126.183594 160.429688 C 126.4375 162.328125 126.59375 162.875 126.308594 163.9375 C 126.023438 164.992188 125.292969 166.578125 124.835938 168.074219 C 124.363281 169.574219 124.15625 170.972656 124.011719 172.019531 C 123.886719 173.066406 123.8125 173.769531 123.804688 174.347656 C 123.78125 174.929688 123.8125 175.378906 123.601562 175.144531 C 123.378906 174.914062 122.921875 173.996094 122.554688 171.027344 Z M 178.960938 101.039062 C 180.191406 99.019531 182.304688 96.066406 184.609375 93.898438 C 186.925781 91.722656 189.4375 90.347656 191.953125 89.636719 C 194.472656 88.917969 196.992188 88.867188 200.207031 89.351562 C 203.429688 89.824219 207.347656 90.847656 210.972656 92.066406 C 214.585938 93.285156 217.898438 94.714844 220.582031 96.125 C 223.25 97.539062 225.277344 98.945312 227.101562 100.285156 C 228.917969 101.636719 230.527344 102.9375 231.664062 103.96875 C 232.800781 104.992188 233.480469 105.734375 233.171875 105.816406 C 232.851562 105.898438 231.566406 105.292969 228.851562 104.449219 C 226.160156 103.589844 222.0625 102.46875 217.746094 101.503906 C 213.417969 100.546875 208.886719 99.738281 204.519531 99.609375 C 200.160156 99.476562 195.980469 100.03125 192.25 100.738281 C 188.511719 101.457031 185.214844 102.339844 182.917969 103.011719 C 180.617188 103.679688 179.320312 104.132812 178.484375 104.464844 C 177.65625 104.808594 177.289062 105.03125 177.304688 104.597656 C 177.324219 104.15625 177.707031 103.066406 178.960938 101.039062 Z M 203.273438 205.347656 C 206.015625 205.1875 211.832031 205.078125 217.582031 203.730469 C 223.332031 202.386719 229.015625 199.789062 233.539062 197.1875 C 238.070312 194.601562 241.445312 192 244.132812 189.785156 C 246.8125 187.566406 248.816406 185.71875 250.101562 184.371094 C 251.386719 183.019531 251.957031 182.160156 252.320312 181.570312 C 252.6875 180.976562 252.832031 180.632812 252.90625 181 C 252.964844 181.359375 252.941406 182.421875 252.046875 185.046875 C 251.148438 187.664062 249.390625 191.84375 246.519531 196.246094 C 243.65625 200.648438 239.671875 205.257812 236.582031 208.351562 C 233.472656 211.433594 231.246094 212.996094 228.378906 213.734375 C 225.507812 214.476562 221.996094 214.394531 218.292969 213.5625 C 214.585938 212.734375 210.660156 211.15625 207.78125 209.757812 C 204.902344 208.359375 203.054688 207.15625 201.964844 206.4375 C 200.878906 205.734375 200.542969 205.511719 203.273438 205.347656 Z M 172.480469 194.242188 C 173.332031 196.148438 174.84375 199.238281 176.578125 202.214844 C 178.320312 205.1875 180.285156 208.039062 182.640625 210.878906 C 184.988281 213.726562 187.710938 216.554688 190.523438 218.691406 C 193.347656 220.832031 196.25 222.289062 199.167969 223.15625 C 202.089844 224.023438 205.023438 224.316406 208.582031 223.832031 C 212.148438 223.367188 216.339844 222.125 219.167969 221.191406 C 221.980469 220.25 223.429688 219.597656 224.105469 219.210938 C 224.785156 218.8125 224.679688 218.671875 223.363281 218.386719 C 222.039062 218.109375 219.511719 217.691406 215.453125 216.261719 C 211.414062 214.835938 205.828125 212.390625 201.15625 209.929688 C 196.496094 207.449219 192.75 204.949219 189.273438 202.914062 C 185.796875 200.875 182.582031 199.304688 180.039062 197.757812 C 177.503906 196.222656 175.621094 194.699219 174.433594 193.742188 C 173.242188 192.777344 172.75 192.367188 172.332031 191.992188 C 171.925781 191.617188 171.582031 191.238281 171.515625 191.4375 C 171.441406 191.617188 171.636719 192.34375 172.480469 194.242188 Z M 151.902344 132.875 C 151.648438 129.632812 151.445312 124.882812 151.761719 120.824219 C 152.074219 116.777344 152.898438 113.4375 154.160156 110.132812 C 155.425781 106.820312 157.128906 103.535156 159 101.074219 C 160.890625 98.601562 162.953125 96.933594 165.390625 95.355469 C 167.820312 93.769531 170.625 92.261719 172.953125 91.222656 C 175.277344 90.183594 177.144531 89.621094 178.992188 89.128906 C 180.839844 88.648438 182.671875 88.238281 183.523438 88.15625 C 184.363281 88.066406 184.21875 88.3125 183.441406 88.917969 C 182.671875 89.539062 181.304688 90.535156 179.472656 93.1875 C 177.65625 95.835938 175.382812 100.132812 173.488281 103.355469 C 171.570312 106.59375 170.027344 108.761719 167.644531 112.074219 C 165.257812 115.378906 162.042969 119.828125 159.761719 123.492188 C 157.480469 127.15625 156.128906 130.035156 155.238281 132.480469 C 154.339844 134.933594 153.898438 136.9375 153.652344 138.179688 C 153.398438 139.417969 153.347656 139.882812 153.242188 139.972656 C 153.121094 140.0625 152.941406 139.785156 152.703125 138.785156 C 152.457031 137.796875 152.164062 136.105469 151.902344 132.875 Z M 167.957031 201.503906 C 167.949219 200.914062 168.078125 200.121094 168.628906 199.574219 C 169.167969 199.035156 170.125 198.742188 170.886719 198.804688 C 171.636719 198.886719 172.1875 199.347656 172.5625 199.933594 C 172.953125 200.523438 173.191406 201.257812 173.09375 201.871094 C 172.996094 202.496094 172.570312 203.019531 171.957031 203.34375 C 171.34375 203.671875 170.558594 203.820312 169.910156 203.714844 C 169.273438 203.605469 168.773438 203.230469 168.457031 202.863281 C 168.128906 202.488281 167.972656 202.09375 167.957031 201.503906 Z M 144.6875 132.160156 C 144.472656 131.308594 144.679688 130.441406 145.175781 129.847656 C 145.675781 129.25 146.476562 128.929688 147.15625 128.847656 C 147.835938 128.765625 148.398438 128.9375 148.890625 129.296875 C 149.382812 129.667969 149.78125 130.222656 149.953125 130.871094 C 150.136719 131.507812 150.085938 132.234375 149.773438 132.839844 C 149.457031 133.453125 148.882812 133.945312 148.246094 134.230469 C 147.605469 134.507812 146.886719 134.589844 146.21875 134.222656 C 145.539062 133.847656 144.910156 133.011719 144.6875 132.160156 Z M 157.71875 174.660156 C 157.398438 175.390625 156.949219 176.445312 156.671875 177.753906 C 156.398438 179.0625 156.308594 180.625 156.335938 181.726562 C 156.367188 182.832031 156.523438 183.476562 156.777344 183.921875 C 157.015625 184.359375 157.355469 184.597656 157.796875 184.6875 C 158.246094 184.785156 158.789062 184.746094 159.125 184.289062 C 159.46875 183.820312 159.597656 182.921875 159.386719 181.761719 C 159.179688 180.597656 158.65625 179.175781 158.371094 178.089844 C 158.109375 177 158.085938 176.238281 158.132812 175.558594 C 158.183594 174.890625 158.3125 174.277344 158.363281 173.890625 C 158.429688 173.507812 158.429688 173.335938 158.324219 173.449219 C 158.222656 173.546875 158.035156 173.941406 157.71875 174.660156 Z M 152.441406 164.339844 C 151.582031 163.980469 150.144531 163.324219 148.851562 162.351562 C 147.566406 161.363281 146.4375 160.035156 145.808594 158.972656 C 145.175781 157.902344 145.046875 157.082031 145.105469 156.421875 C 145.167969 155.773438 145.40625 155.292969 145.757812 155.03125 C 146.101562 154.785156 146.542969 154.742188 147.109375 155.070312 C 147.664062 155.390625 148.328125 156.0625 149.015625 157.179688 C 149.691406 158.300781 150.414062 159.847656 150.976562 161.011719 C 151.550781 162.171875 151.984375 162.921875 152.351562 163.4375 C 152.71875 163.945312 153.03125 164.207031 153.257812 164.402344 C 153.488281 164.59375 153.644531 164.722656 153.585938 164.753906 C 153.535156 164.773438 153.292969 164.707031 152.441406 164.339844 Z M 149.863281 170.792969 C 148.269531 169.71875 145.457031 167.742188 142.78125 165.261719 C 140.097656 162.785156 137.5625 159.808594 135.714844 156.984375 C 133.875 154.15625 132.730469 151.464844 131.835938 148.210938 C 130.9375 144.953125 130.292969 141.125 130.421875 137.175781 C 130.539062 133.226562 131.4375 129.144531 133.082031 124.71875 C 134.71875 120.285156 137.105469 115.5 139.609375 111.859375 C 142.125 108.21875 144.753906 105.726562 147.035156 103.707031 C 149.300781 101.675781 151.214844 100.125 152.480469 99.132812 C 153.75 98.136719 154.386719 97.710938 154.4375 97.914062 C 154.476562 98.121094 153.9375 98.96875 153.085938 100.539062 C 152.253906 102.117188 151.101562 104.425781 150.453125 107.402344 C 149.816406 110.371094 149.652344 114.011719 149.023438 116.914062 C 148.390625 119.835938 147.296875 122.019531 145.628906 124.449219 C 143.96875 126.867188 141.75 129.519531 140.410156 131.441406 C 139.058594 133.378906 138.59375 134.597656 138.234375 135.578125 C 137.875 136.5625 137.613281 137.296875 137.441406 137.878906 C 137.277344 138.46875 137.195312 138.902344 137.367188 138.972656 C 137.53125 139.066406 137.9375 138.8125 138.609375 138.417969 C 139.28125 138.035156 140.195312 137.527344 141.351562 137.304688 C 142.488281 137.085938 143.84375 137.160156 145.054688 137.339844 C 146.257812 137.519531 147.296875 137.820312 148.441406 138.589844 C 149.578125 139.34375 150.839844 140.585938 151.632812 142.027344 C 152.410156 143.464844 152.710938 145.109375 152.84375 146.3125 C 152.980469 147.511719 152.933594 148.257812 152.808594 148.871094 C 152.703125 149.476562 152.507812 149.953125 152.34375 150.285156 C 152.171875 150.621094 152.023438 150.816406 151.902344 150.800781 C 151.789062 150.769531 151.695312 150.515625 151.589844 150.1875 C 151.46875 149.871094 151.320312 149.46875 151.058594 149.230469 C 150.789062 149.003906 150.421875 148.921875 150.042969 148.921875 C 149.660156 148.921875 149.292969 149.003906 148.980469 149.230469 C 148.671875 149.46875 148.433594 149.871094 148.039062 150.3125 C 147.65625 150.746094 147.117188 151.234375 146.40625 151.585938 C 145.691406 151.9375 144.816406 152.144531 143.984375 152.207031 C 143.164062 152.257812 142.40625 152.144531 141.621094 151.808594 C 140.816406 151.464844 139.992188 150.882812 139.402344 150.148438 C 138.796875 149.394531 138.453125 148.476562 138.347656 147.605469 C 138.257812 146.71875 138.429688 145.878906 138.726562 145.238281 C 139.019531 144.59375 139.445312 144.152344 139.941406 143.847656 C 140.441406 143.5625 141.023438 143.433594 141.503906 143.390625 C 141.996094 143.351562 142.40625 143.425781 142.832031 143.605469 C 143.25 143.777344 143.671875 144.0625 143.925781 144.40625 C 144.179688 144.75 144.246094 145.15625 144.269531 145.59375 C 144.277344 146.035156 144.238281 146.492188 144.121094 146.808594 C 144.015625 147.128906 143.835938 147.300781 143.535156 147.382812 C 143.230469 147.449219 142.796875 147.429688 142.542969 147.34375 C 142.292969 147.261719 142.207031 147.128906 142.101562 147.082031 C 141.988281 147.039062 141.855469 147.082031 141.800781 147.210938 C 141.742188 147.34375 141.742188 147.5625 141.921875 147.75 C 142.085938 147.949219 142.4375 148.125 142.929688 148.160156 C 143.402344 148.191406 144.03125 148.070312 144.566406 147.695312 C 145.097656 147.308594 145.523438 146.671875 145.691406 145.960938 C 145.867188 145.238281 145.78125 144.453125 145.464844 143.816406 C 145.144531 143.171875 144.597656 142.671875 143.984375 142.378906 C 143.378906 142.082031 142.707031 141.976562 141.9375 142.019531 C 141.167969 142.042969 140.285156 142.222656 139.566406 142.648438 C 138.839844 143.0625 138.273438 143.726562 137.839844 144.570312 C 137.417969 145.429688 137.113281 146.464844 136.964844 147.628906 C 136.8125 148.796875 136.800781 150.082031 137.164062 151.496094 C 137.523438 152.929688 138.25 154.5 139.222656 156.035156 C 140.1875 157.582031 141.390625 159.105469 142.945312 160.691406 C 144.507812 162.269531 146.421875 163.929688 147.941406 165.058594 C 149.464844 166.171875 150.566406 166.777344 151.761719 167.308594 C 152.949219 167.839844 154.214844 168.304688 155.191406 168.574219 C 156.144531 168.84375 156.808594 168.910156 157.210938 168.960938 C 157.59375 169 157.75 169.007812 157.71875 169.230469 C 157.691406 169.449219 157.503906 169.867188 157.136719 170.742188 C 156.769531 171.601562 156.21875 172.910156 155.703125 175.003906 C 155.207031 177.105469 154.738281 179.992188 154.519531 182.242188 C 154.296875 184.5 154.328125 186.121094 154.535156 187.574219 C 154.75 189.03125 155.140625 190.332031 155.558594 191.328125 C 155.972656 192.320312 156.425781 193.015625 156.996094 193.652344 C 157.570312 194.289062 158.246094 194.886719 158.917969 195.273438 C 159.574219 195.648438 160.226562 195.796875 161.003906 195.851562 C 161.773438 195.902344 162.664062 195.835938 163.328125 195.605469 C 164 195.386719 164.429688 194.992188 164.742188 194.429688 C 165.035156 193.875 165.21875 193.136719 165.152344 192.359375 C 165.078125 191.589844 164.765625 190.765625 164.421875 190.160156 C 164.078125 189.5625 163.703125 189.1875 163.304688 188.984375 C 162.894531 188.777344 162.460938 188.738281 161.996094 188.777344 C 161.519531 188.8125 161.019531 188.925781 160.644531 189.15625 C 160.261719 189.390625 159.992188 189.734375 159.84375 190.046875 C 159.703125 190.363281 159.671875 190.652344 159.785156 190.90625 C 159.898438 191.152344 160.152344 191.371094 160.425781 191.402344 C 160.695312 191.417969 160.980469 191.238281 161.160156 191.085938 C 161.355469 190.921875 161.445312 190.78125 161.675781 190.714844 C 161.90625 190.632812 162.265625 190.632812 162.585938 190.773438 C 162.894531 190.914062 163.164062 191.207031 163.3125 191.625 C 163.457031 192.042969 163.492188 192.574219 163.378906 193.039062 C 163.269531 193.503906 163.023438 193.890625 162.640625 194.152344 C 162.273438 194.414062 161.78125 194.527344 161.152344 194.488281 C 160.523438 194.460938 159.761719 194.257812 159.171875 193.929688 C 158.574219 193.613281 158.160156 193.152344 157.824219 192.589844 C 157.496094 192.03125 157.265625 191.371094 157.226562 190.652344 C 157.175781 189.929688 157.316406 189.144531 157.535156 188.484375 C 157.765625 187.8125 158.078125 187.265625 158.625 186.824219 C 159.179688 186.398438 159.984375 186.085938 160.597656 185.90625 C 161.207031 185.726562 161.652344 185.6875 161.96875 185.660156 C 162.304688 185.636719 162.507812 185.628906 162.632812 185.496094 C 162.738281 185.367188 162.761719 185.121094 162.714844 184.671875 C 162.664062 184.222656 162.550781 183.578125 162.492188 183.109375 C 162.429688 182.652344 162.429688 182.359375 162.492188 182.242188 C 162.550781 182.121094 162.683594 182.167969 163.035156 182.519531 C 163.367188 182.871094 163.941406 183.519531 164.660156 184.3125 C 165.371094 185.089844 166.230469 185.996094 166.835938 186.773438 C 167.457031 187.542969 167.828125 188.191406 168.113281 189.105469 C 168.414062 190.019531 168.636719 191.222656 168.667969 192.277344 C 168.683594 193.332031 168.515625 194.257812 168.144531 195.066406 C 167.777344 195.886719 167.207031 196.605469 166.445312 197.226562 C 165.675781 197.855469 164.726562 198.398438 163.726562 198.78125 C 162.738281 199.164062 161.699219 199.386719 160.875 199.484375 C 160.054688 199.589844 159.441406 199.566406 158.953125 199.550781 C 158.476562 199.523438 158.117188 199.515625 157.894531 199.558594 C 157.667969 199.605469 157.570312 199.707031 157.757812 200.03125 C 157.945312 200.367188 158.429688 200.925781 159.035156 201.71875 C 159.648438 202.496094 160.375 203.515625 161.773438 204.398438 C 163.179688 205.292969 165.25 206.050781 167.449219 206.738281 C 169.660156 207.417969 171.988281 208.03125 173.984375 208.957031 C 175.980469 209.890625 177.640625 211.148438 179.105469 212.554688 C 180.585938 213.953125 181.886719 215.5 183.054688 217.03125 C 184.234375 218.558594 185.28125 220.070312 186.132812 221.136719 C 186.972656 222.207031 187.613281 222.84375 188.59375 223.515625 C 189.566406 224.1875 190.882812 224.882812 191.90625 225.332031 C 192.929688 225.773438 193.648438 225.976562 194.21875 226.140625 C 194.800781 226.320312 195.257812 226.484375 195.339844 226.589844 C 195.421875 226.703125 195.121094 226.761719 194.441406 226.835938 C 193.769531 226.902344 192.714844 226.984375 189.886719 226.617188 C 187.0625 226.246094 182.457031 225.429688 178.65625 224.226562 C 174.851562 223.023438 171.851562 221.445312 168.601562 219.007812 C 165.371094 216.578125 161.871094 213.289062 159.125 209.667969 C 156.375 206.042969 154.355469 202.078125 153.03125 198.398438 C 151.695312 194.734375 151.050781 191.355469 150.878906 187.925781 C 150.699219 184.507812 151 181.03125 151.230469 178.636719 C 151.46875 176.238281 151.640625 174.90625 151.761719 174.082031 C 151.894531 173.246094 151.964844 172.925781 152.03125 172.6875 C 152.089844 172.460938 152.121094 172.320312 151.957031 172.167969 C 151.804688 172.019531 151.453125 171.871094 149.863281 170.792969 Z M 124.976562 179.730469 C 125.292969 179.484375 125.792969 179.085938 126.105469 178.464844 C 126.414062 177.84375 126.546875 177.015625 126.609375 176.253906 C 126.683594 175.496094 126.699219 174.808594 127.101562 174.070312 C 127.503906 173.320312 128.289062 172.511719 129.164062 171.886719 C 130.019531 171.273438 130.960938 170.832031 131.917969 170.546875 C 132.875 170.269531 133.859375 170.152344 134.445312 170.089844 C 135.027344 170.023438 135.214844 170.015625 134.976562 169.835938 C 134.734375 169.664062 134.0625 169.320312 133.1875 168.304688 C 132.304688 167.28125 131.199219 165.582031 130.390625 163.90625 C 129.582031 162.234375 129.054688 160.59375 128.738281 158.753906 C 128.417969 156.910156 128.3125 154.890625 128.378906 153.476562 C 128.449219 152.042969 128.714844 151.234375 128.957031 150.628906 C 129.21875 150.015625 129.457031 149.609375 129.628906 149.699219 C 129.800781 149.785156 129.890625 150.375 130.300781 151.734375 C 130.707031 153.109375 131.4375 155.242188 132.738281 157.53125 C 134.027344 159.824219 135.894531 162.261719 137.824219 164.273438 C 139.746094 166.285156 141.742188 167.871094 143.550781 169.140625 C 145.359375 170.421875 146.992188 171.394531 148.015625 172.003906 C 149.03125 172.609375 149.429688 172.835938 149.59375 173.1875 C 149.742188 173.539062 149.652344 174.003906 149.277344 175.945312 C 148.898438 177.882812 148.238281 181.300781 147.894531 184.097656 C 147.550781 186.890625 147.527344 189.070312 147.664062 191.46875 C 147.8125 193.875 148.121094 196.5 148.539062 198.535156 C 148.964844 200.589844 149.488281 202.042969 149.882812 202.914062 C 150.265625 203.785156 150.496094 204.066406 150.378906 204.148438 C 150.273438 204.238281 149.824219 204.121094 148.785156 203.296875 C 147.746094 202.460938 146.125 200.90625 144.628906 198.960938 C 143.140625 197 141.773438 194.648438 140.933594 192.351562 C 140.089844 190.054688 139.761719 187.8125 139.65625 186.054688 C 139.558594 184.296875 139.671875 183.019531 139.730469 182.359375 C 139.78125 181.695312 139.761719 181.621094 139.492188 181.890625 C 139.222656 182.152344 138.691406 182.75 137.785156 183.25 C 136.882812 183.746094 135.617188 184.148438 134.371094 184.246094 C 133.148438 184.335938 131.960938 184.117188 130.976562 183.699219 C 129.988281 183.28125 129.230469 182.667969 128.535156 182.144531 C 127.839844 181.613281 127.226562 181.15625 126.660156 180.867188 C 126.105469 180.582031 125.613281 180.476562 125.230469 180.386719 C 124.851562 180.296875 124.589844 180.230469 124.542969 180.15625 C 124.492188 180.074219 124.640625 179.984375 124.976562 179.730469 Z M 128.894531 188.15625 C 130.121094 190.234375 132.410156 193.898438 136.285156 198.390625 C 140.171875 202.871094 145.644531 208.195312 150.042969 211.867188 C 154.4375 215.53125 157.765625 217.542969 160.152344 218.835938 C 162.550781 220.152344 164.023438 220.75 164.792969 220.957031 C 165.5625 221.175781 165.640625 221.011719 164.675781 220.398438 C 163.726562 219.800781 161.742188 218.761719 158.527344 216.523438 C 155.320312 214.28125 150.871094 210.847656 146.707031 206.339844 C 142.542969 201.824219 138.683594 196.246094 136.574219 193.261719 C 134.464844 190.273438 134.136719 189.882812 133.507812 189.382812 C 132.882812 188.882812 131.976562 188.277344 131.160156 187.707031 C 130.339844 187.132812 129.621094 186.609375 129.082031 186.183594 C 128.542969 185.757812 128.191406 185.449219 127.921875 185.277344 C 127.65625 185.105469 127.46875 185.089844 127.46875 185.328125 C 127.46875 185.570312 127.65625 186.078125 128.894531 188.15625 " fill-opacity="1" fill-rule="evenodd"/></g><g clip-path="url(#950211d212)"><path fill="#7f5af0" d="M 208.933594 142.964844 C 211.25 140.957031 213.941406 139.417969 216.804688 138.414062 C 216.617188 136.160156 216.769531 133.386719 217.878906 130.609375 C 218.160156 129.90625 218.921875 129.515625 219.65625 129.703125 C 219.65625 129.703125 221.714844 130.203125 224.191406 131.714844 C 224.222656 131.644531 224.257812 131.574219 224.289062 131.503906 C 225.121094 129.765625 226.316406 128.292969 227.9375 127.484375 C 228.523438 127.191406 229.230469 127.308594 229.691406 127.769531 C 229.691406 127.769531 235.433594 133.53125 236.828125 140.832031 C 242.394531 144.847656 246.460938 152.238281 246.460938 163.820312 C 246.460938 185.445312 232.5625 194.277344 230.707031 195.359375 C 228.070312 197.902344 223.417969 199.683594 218.042969 200.550781 C 210.105469 201.832031 200.613281 201.183594 194.234375 198.628906 C 178.394531 192.296875 170.484375 176.953125 170.484375 163.914062 C 170.484375 152.945312 172.769531 149.597656 174.945312 139.8125 C 179.0625 121.277344 171.25 116.488281 171.25 116.488281 C 170.738281 116.191406 170.441406 115.628906 170.492188 115.042969 C 170.539062 114.453125 170.921875 113.949219 171.476562 113.742188 C 171.476562 113.742188 177.257812 111.589844 184.347656 111.757812 C 191.570312 111.929688 200.113281 114.484375 205.4375 123.914062 C 208.296875 128.976562 209.074219 135.671875 208.933594 142.964844 Z M 203.582031 175.214844 C 203.601562 178.007812 203.792969 180.628906 204.253906 183 C 204.992188 186.835938 206.421875 190.054688 208.808594 192.40625 C 211.578125 195.128906 215.695312 196.746094 221.746094 196.640625 C 220.433594 197.011719 219.023438 197.3125 217.558594 197.550781 C 210.164062 198.742188 201.308594 198.1875 195.363281 195.808594 C 180.808594 189.988281 173.523438 175.898438 173.523438 163.914062 C 173.523438 153.238281 175.796875 149.992188 177.910156 140.46875 C 181.117188 126.039062 177.609375 118.941406 175.015625 115.863281 C 177.167969 115.328125 180.519531 114.707031 184.277344 114.796875 C 190.609375 114.949219 198.121094 117.140625 202.789062 125.40625 C 205.808594 130.753906 206.191406 138.078125 205.789062 145.929688 C 199.0625 151.984375 195.21875 151.863281 195.21875 151.863281 L 195.21875 151.867188 C 194.984375 151.800781 194.730469 151.789062 194.476562 151.84375 C 193.742188 152 193.25 152.664062 193.28125 153.390625 C 193.253906 154.054688 193.328125 156.199219 194.984375 158.691406 C 196.398438 160.816406 199.039062 163.292969 204.070312 165.160156 C 203.78125 168.542969 203.578125 171.824219 203.582031 174.902344 C 203.578125 174.949219 203.574219 174.996094 203.574219 175.042969 C 203.574219 175.101562 203.578125 175.160156 203.582031 175.214844 Z M 214.074219 168.136719 C 228.007812 173.246094 233.054688 183.273438 228.738281 192.796875 C 219.769531 194.546875 214.230469 193.480469 210.941406 190.238281 C 208.964844 188.292969 207.847656 185.601562 207.234375 182.425781 C 206.882812 180.589844 206.699219 178.59375 206.636719 176.488281 C 208.53125 176.261719 209.976562 175.597656 211.074219 174.722656 C 213.257812 172.976562 214.050781 170.328125 214.074219 168.136719 Z M 206.882812 162.902344 C 210.707031 163.355469 215.621094 163.164062 221.941406 161.808594 C 230.765625 159.917969 238.078125 165.960938 238.660156 174.28125 C 238.972656 178.777344 237.34375 183.882812 233.09375 188.8125 C 234.625 178.933594 227.949219 169.15625 212.726562 164.476562 C 212.65625 164.449219 212.589844 164.429688 212.519531 164.414062 C 211.4375 164.085938 210.3125 163.78125 209.144531 163.507812 C 208.339844 163.320312 207.585938 163.113281 206.882812 162.902344 Z M 226.445312 134.292969 C 226.609375 133.789062 226.804688 133.289062 227.03125 132.8125 C 227.390625 132.070312 227.824219 131.375 228.386719 130.84375 C 229.941406 132.65625 233.167969 136.921875 233.933594 141.941406 C 234 142.363281 234.234375 142.738281 234.589844 142.976562 C 239.78125 146.460938 243.421875 153.199219 243.421875 163.820312 C 243.421875 168.339844 242.765625 172.25 241.734375 175.605469 C 241.742188 175.089844 241.726562 174.574219 241.691406 174.070312 C 240.984375 163.917969 232.070312 156.53125 221.304688 158.835938 C 204.761719 162.382812 199.007812 157.519531 197.128906 154.726562 C 199.390625 154.234375 203.035156 152.625 208.132812 147.914062 C 208.253906 147.828125 208.363281 147.726562 208.457031 147.613281 C 208.917969 147.179688 209.390625 146.722656 209.871094 146.242188 C 212.320312 143.789062 215.378906 142.003906 218.644531 141 C 218.65625 141 218.671875 141 218.683594 140.996094 C 218.839844 140.972656 218.984375 140.925781 219.121094 140.863281 C 220.753906 140.402344 222.433594 140.140625 224.113281 140.085938 C 224.878906 140.0625 225.503906 139.476562 225.578125 138.714844 C 225.683594 137.625 225.886719 136.167969 226.3125 134.726562 C 226.378906 134.585938 226.425781 134.4375 226.445312 134.292969 Z M 207.039062 166.109375 C 207.496094 166.234375 207.964844 166.351562 208.449219 166.464844 C 209.324219 166.671875 210.175781 166.894531 211 167.132812 C 211.3125 168.550781 210.957031 170.925781 209.179688 172.34375 C 208.53125 172.863281 207.6875 173.242188 206.625 173.417969 C 206.671875 171.078125 206.832031 168.625 207.039062 166.109375 Z M 219.792969 137.570312 C 219.726562 136.21875 219.816406 134.683594 220.242188 133.109375 C 221.019531 133.425781 222.066406 133.929688 223.183594 134.671875 C 222.972656 135.527344 222.820312 136.363281 222.710938 137.128906 C 221.730469 137.214844 220.757812 137.359375 219.792969 137.570312 Z M 219.792969 137.570312 " fill-opacity="1" fill-rule="evenodd"/></g><g fill="#8d8f96" fill-opacity="1"><g transform="translate(109.936448, 262.17678)"><g><path d="M 13.25 0 L 2.421875 0 L 2.421875 -19.671875 L 4.609375 -19.671875 L 4.609375 -1.96875 L 13.25 -1.96875 Z M 13.25 0 "/></g></g></g><g fill="#8d8f96" fill-opacity="1"><g transform="translate(127.53687, 262.17678)"><g><path d="M 4.46875 -5.921875 C 4.46875 -3.078125 6.003906 -1.65625 9.078125 -1.65625 C 10.660156 -1.65625 11.851562 -1.988281 12.65625 -2.65625 C 13.46875 -3.332031 13.875 -4.421875 13.875 -5.921875 L 13.875 -19.671875 L 16.03125 -19.671875 L 16.03125 -5.96875 C 16.03125 -3.769531 15.445312 -2.175781 14.28125 -1.1875 C 13.125 -0.207031 11.40625 0.28125 9.125 0.28125 C 6.851562 0.28125 5.144531 -0.207031 4 -1.1875 C 2.851562 -2.175781 2.28125 -3.769531 2.28125 -5.96875 L 2.28125 -19.671875 L 4.46875 -19.671875 Z M 4.46875 -5.921875 "/></g></g></g><g fill="#8d8f96" fill-opacity="1"><g transform="translate(149.828178, 262.17678)"><g><path d="M 2.421875 0 L 2.421875 -19.671875 L 6.515625 -19.671875 L 14.046875 -1.9375 L 14.640625 -1.9375 L 14.640625 -19.671875 L 16.8125 -19.671875 L 16.8125 0 L 12.796875 0 L 5.140625 -17.75 L 4.609375 -17.75 L 4.609375 0 Z M 2.421875 0 "/></g></g></g><g fill="#8d8f96" fill-opacity="1"><g transform="translate(173.029233, 262.17678)"><g><path d="M 2.421875 0 L 2.421875 -19.671875 L 6.515625 -19.671875 L 14.046875 -1.9375 L 14.640625 -1.9375 L 14.640625 -19.671875 L 16.8125 -19.671875 L 16.8125 0 L 12.796875 0 L 5.140625 -17.75 L 4.609375 -17.75 L 4.609375 0 Z M 2.421875 0 "/></g></g></g><g fill="#8d8f96" fill-opacity="1"><g transform="translate(196.230291, 262.17678)"><g><path d="M 0.6875 0 L 6.078125 -19.671875 L 10.859375 -19.671875 L 16.265625 0 L 14.109375 0 L 12.6875 -5.0625 L 4.265625 -5.0625 L 2.84375 0 Z M 7.734375 -17.796875 L 4.75 -7.03125 L 12.203125 -7.03125 L 9.21875 -17.796875 Z M 7.734375 -17.796875 "/></g></g></g><g fill="#8d8f96" fill-opacity="1"><g transform="translate(217.156973, 262.17678)"><g><path d="M 4.609375 -7.53125 L 4.609375 0 L 2.421875 0 L 2.421875 -19.671875 L 9.703125 -19.671875 C 11.785156 -19.671875 13.351562 -19.1875 14.40625 -18.21875 C 15.457031 -17.257812 15.984375 -15.753906 15.984375 -13.703125 C 15.984375 -10.671875 14.78125 -8.765625 12.375 -7.984375 L 16.15625 0 L 13.734375 0 L 10.1875 -7.53125 Z M 9.71875 -9.46875 C 12.394531 -9.46875 13.734375 -10.847656 13.734375 -13.609375 C 13.734375 -16.367188 12.390625 -17.75 9.703125 -17.75 L 4.609375 -17.75 L 4.609375 -9.46875 Z M 9.71875 -9.46875 "/></g></g></g><g fill="#8d8f96" fill-opacity="1"><g transform="translate(238.652249, 262.17678)"><g><path d="M 2.421875 0 L 2.421875 -19.671875 L 4.609375 -19.671875 L 4.609375 0 Z M 2.421875 0 "/></g></g></g><g fill="#8d8f96" fill-opacity="1"><g transform="translate(249.628563, 262.17678)"><g><path d="M 7.84375 -18.0625 C 5 -18.0625 3.578125 -16.988281 3.578125 -14.84375 C 3.578125 -13.644531 3.90625 -12.820312 4.5625 -12.375 C 5.21875 -11.9375 6.546875 -11.492188 8.546875 -11.046875 C 10.546875 -10.597656 11.960938 -10.019531 12.796875 -9.3125 C 13.628906 -8.601562 14.046875 -7.429688 14.046875 -5.796875 C 14.046875 -1.765625 11.953125 0.25 7.765625 0.25 C 6.378906 0.25 4.644531 0.0859375 2.5625 -0.234375 L 1.53125 -0.375 L 1.765625 -2.1875 C 4.335938 -1.84375 6.300781 -1.671875 7.65625 -1.671875 C 10.457031 -1.671875 11.859375 -2.988281 11.859375 -5.625 C 11.859375 -6.6875 11.550781 -7.445312 10.9375 -7.90625 C 10.320312 -8.375 9.171875 -8.769531 7.484375 -9.09375 C 5.265625 -9.570312 3.6875 -10.1875 2.75 -10.9375 C 1.820312 -11.6875 1.359375 -12.941406 1.359375 -14.703125 C 1.359375 -18.222656 3.472656 -19.984375 7.703125 -19.984375 C 9.085938 -19.984375 10.75 -19.84375 12.6875 -19.5625 L 13.65625 -19.421875 L 13.453125 -17.578125 C 10.816406 -17.898438 8.945312 -18.0625 7.84375 -18.0625 Z M 7.84375 -18.0625 "/></g></g></g><path stroke-linecap="butt" transform="matrix(0.75, 0.000000000000000317, -0.000000000000000317, 0.75, 111.423096, 267.582023)" fill="none" stroke-linejoin="miter" d="M -0.00162744 2.000011 L 134.607756 2.000011 " stroke="#7f5af0" stroke-width="4" stroke-opacity="1" stroke-miterlimit="4"/></svg>